<svg xmlns="http://www.w3.org/2000/svg" viewBox="0 0 3400 3400" width="512" height="512">
<ellipse cx="1700.00" cy="1700.00" rx="1646.40" ry="1646.40" fill="#030303"/>
<path d="M1744.00 130.00 L1474.00 154.00 L1314.00 184.00 L874.00 374.00 L476.00 778.00 L344.00 984.00 L244.00 1149.91 C244.00 1149.91 133.08 1515.92 136.88 1704.00 C140.59 1887.32 265.99 2238.72 265.99 2238.72 L557.14 2518.28 C557.14 2518.28 819.58 2853.75 998.28 2960.70 C1157.37 3055.90 1535.72 3103.92 1535.72 3103.92 L1699.00 3182.27 L1869.59 3104.19 C1869.59 3104.19 2242.82 3054.87 2400.03 2960.91 C2581.11 2852.68 2851.47 2517.35 2851.47 2517.35 L3139.27 2237.56 C3139.27 2237.56 3265.68 1886.75 3269.78 1703.56 C3273.89 1519.63 3163.31 1162.00 3163.31 1162.00 L3008.00 864.00 L2724.00 542.00 L2423.65 290.60 L2068.00 164.00Z" fill="#ed4836"/>
<path d="M1699.75 101.27 C999.00 101.27 596.84 580.67 596.84 580.67 L490.86 668.00 L257.33 1116.00 L489.53 824.00 L533.31 693.00 L655.02 638.30 L1003.64 289.99 L958.69 373.00 C958.69 373.00 1188.00 156.15 1699.00 156.15 C2210.00 156.15 2448.44 373.00 2448.44 373.00 L2401.63 290.00 L2750.00 638.00 L2874.50 693.00 L2920.50 833.00 L3145.75 1116.00 L2915.69 667.96 L2868.59 638.00 C2868.59 638.00 2849.38 622.56 2802.61 578.77 C2646.20 432.34 2400.00 101.27 1699.75 101.27Z" fill="#ed4836"/>
<path d="M2056.35 3171.00 L1886.00 3185.43 L1699.00 3269.19 L1520.00 3185.43 L1346.81 3171.00 L1698.79 3314.00Z" fill="#ed4836"/>
<path d="M3145.71 2286.00 L2885.14 2642.00 L2606.29 2961.00 L2210.00 3154.00 L1870.67 3292.89 L2211.21 3228.10 L2631.43 2991.00 L2973.14 2642.00Z" fill="#ed4836"/>
<path d="M261.33 2286.67 L433.00 2642.50 L774.61 2991.32 L1191.50 3228.00 L1520.00 3292.89 L1188.36 3155.65 L801.13 2962.21 L519.36 2641.87Z" fill="#ed4836"/>
<path d="M2862.08 928.00 C2862.08 928.00 3062.98 1116.00 3062.98 1640.05 C3062.98 2124.00 2862.27 2449.00 2862.27 2449.00 C2862.27 2449.00 3153.04 2238.00 3153.04 1640.00 C3153.04 1116.00 2862.08 928.00 2862.08 928.00Z" fill="#030303"/>
<path d="M1699.53 156.92 L1143.59 272.00 L958.69 373.00 L1004.34 290.00 L657.39 638.00 L532.37 693.00 L488.83 824.00 L258.46 1116.00 L226.86 1116.00 L226.16 1162.00 L241.73 1162.30 L615.56 810.00 L628.89 732.00 L738.22 684.00 L985.33 473.33 L854.22 485.00 L1042.22 420.89 L1520.00 272.00 L1520.23 512.13 L1593.93 598.23 L1520.05 732.24 L1543.53 833.00 L786.22 1496.44 L684.00 1534.67 L692.50 2576.07 L1699.65 2897.74 L2728.00 2219.00 L2720.14 1282.38 L2515.06 1250.07 L1886.08 824.59 L1834.72 905.53 L2301.55 1212.85 L1897.31 1149.82 L1907.85 1212.00 L2436.00 1300.89 L2520.89 1359.56 L2002.22 1591.56 L2012.89 1640.44 L1814.22 1918.89 L1812.89 1834.67 L1965.13 1616.37 L1796.89 889.33 L1852.44 704.44 L1797.33 752.44 L1678.27 743.95 L1753.33 638.07 L1746.22 607.65 L1807.46 608.00 L1886.00 512.00 L1886.00 272.00 L2370.77 419.98 L2550.06 485.00 L2418.54 472.00 L2665.78 682.00 L2779.55 732.00 L2791.95 810.00 L3160.81 1162.11 L3178.13 1161.99 L3177.20 1116.00 L3146.61 1116.63 L2919.95 833.00 L2872.89 693.82 L2751.39 638.00 L2590.01 485.11 L2404.00 291.35 L2448.50 373.00 L2265.94 272.26Z" fill="#030303"/>
<path d="M540.10 928.30 C540.10 928.30 253.63 1068.88 253.63 1655.70 C253.63 2245.98 543.61 2449.44 543.61 2449.44 C543.61 2449.44 338.13 2147.04 338.13 1653.99 C338.13 1138.82 540.10 928.30 540.10 928.30Z" fill="#030303"/>
<path d="M2426.50 1496.00 L2338.50 1542.50 L1812.00 2486.93 L1812.00 2540.80Z" fill="#ed4836"/>
<path d="M2637.96 1398.61 L1976.25 2635.50 L2022.60 2610.04 L2637.96 1534.00Z" fill="#ed4836"/>
<path d="M2563.87 1435.84 L2489.77 1467.79 L1812.00 2668.21 L1811.81 2736.47 L1840.72 2723.23Z" fill="#ed4836"/>
<path d="M742.00 1600.18 L742.00 2532.39 L1662.00 2824.74 L1662.47 1807.85Z" fill="#ed4836"/>
<path d="M1602.76 905.00 L1012.00 1419.00 L1468.58 1266.00 L1611.29 910.66Z" fill="#ed4836"/>
<path d="M1669.14 928.00 L1548.12 1243.08 L1726.99 1182.48 L1745.45 1237.23 L835.00 1545.75 L1699.00 1732.81 L1895.13 1643.78 L1699.05 934.95Z" fill="#ed4836"/>
<path d="M1808.89 264.00 L1647.11 561.00 L1647.19 620.90 C1647.19 620.90 1574.49 655.31 1574.49 744.00 C1574.49 889.00 1735.42 889.00 1735.42 889.00 L1724.88 846.76 C1724.88 846.76 1615.56 846.00 1615.56 744.00 C1615.56 657.53 1699.00 638.00 1699.00 638.00 L1699.00 561.03 L1777.04 561.00 L1835.31 489.00 L1833.65 264.00Z" fill="#ed4836"/>
<path d="M1633.32 264.00 L1575.05 264.00 L1576.16 489.00 L1612.79 539.88 L1699.20 353.42Z" fill="#ed4836"/>
<path d="M1532.81 1960.36 L926.73 2478.10 L1534.86 2659.61Z" fill="#030405"/>
<path d="M847.06 1738.32 L847.02 2380.82 L1420.86 1886.78Z" fill="#030405"/>
</svg>